<svg xmlns="http://www.w3.org/2000/svg" version="1.1" xmlns:xlink="http://www.w3.org/1999/xlink" xmlns:svgjs="http://svgjs.com/svgjs" width="1440" height="700" preserveAspectRatio="none" viewBox="0 0 1440 700"><g mask="url(&quot;#SvgjsMask1012&quot;)" fill="none"><rect width="1440" height="700" x="0" y="0" fill="#0e2a47"></rect><path d="M0,580.146C107.69,565.898,210.523,527.66,296.141,460.805C376.89,397.753,421.101,304.763,468.794,214.091C519.294,118.083,601.863,22.99,582.583,-83.763C563.34,-190.306,432.795,-232.739,371.922,-322.273C299.321,-429.058,302.446,-588.581,192.893,-656.934C79.522,-727.669,-73.604,-724.087,-199.271,-678.654C-322.214,-634.206,-414.673,-528.607,-478.158,-414.326C-534.685,-312.572,-535.799,-193.109,-533.653,-76.728C-531.787,24.461,-495.027,115.955,-466.587,213.083C-432.859,328.27,-445.512,472.239,-351.181,546.449C-256.845,620.663,-118.992,595.889,0,580.146" fill="#0b2239"></path><path d="M1440 1284.454C1555.443 1287.595 1682.799 1290.231 1772.8600000000001 1217.94 1861.199 1147.031 1847.413 1010.023 1904.0819999999999 911.939 1969.453 798.795 2152.395 729.51 2129.373 600.883 2106.054 470.601 1902.685 473.73900000000003 1808.929 380.321 1725.6399999999999 297.332 1726.442 138.63699999999994 1618.5529999999999 91.90300000000002 1510.878 45.26099999999997 1392.421 121.73599999999999 1278.693 150.63800000000003 1160.159 180.76199999999994 1025.937 180.03999999999996 937.858 264.892 847.459 351.978 795.066 483.23199999999997 803.437 608.476 811.369 727.149 925.04 804.664 980.954 909.639 1032.368 1006.165 1033.868 1130.969 1118.5810000000001 1200.138 1206.152 1271.6399999999999 1326.988 1281.379 1440 1284.454" fill="#113255"></path></g><defs><mask id="SvgjsMask1012"><rect width="1440" height="700" fill="#ffffff"></rect></mask></defs></svg>